<?xml version="1.0" encoding="utf-8"?>
<!-- Generator: Adobe Illustrator 14.0.0, SVG Export Plug-In . SVG Version: 6.00 Build 43363)  -->
<!DOCTYPE svg PUBLIC "-//W3C//DTD SVG 1.1//EN" "http://www.w3.org/Graphics/SVG/1.1/DTD/svg11.dtd">
<svg version="1.1" id="Layer_1" xmlns="http://www.w3.org/2000/svg" xmlns:xlink="http://www.w3.org/1999/xlink" x="0px" y="0px"
	 width="260px" height="135px" viewBox="-54.25 9.25 260 135" enable-background="new -54.25 9.25 260 135" xml:space="preserve">
<g id="Layer_x0020_1">
	<ellipse fill="#FFFFFF" stroke="#495677" stroke-width="7.874" cx="76.751" cy="72.516" rx="106.825" ry="107.835"/>
	<path fill="#FFFFFF" stroke="#495677" stroke-width="4.064" d="M75.648-25.238c53.228,0,96.378,43.557,96.378,97.286
		c0,53.729-43.15,97.286-96.378,97.286c-53.224,0-96.373-43.557-96.373-97.286C-20.725,18.319,22.424-25.238,75.648-25.238z"/>
	<path fill="#495677" stroke="#495677" stroke-width="0.0762" d="M41.044,98.996c12.578,0,22.863-10.379,22.863-23.078
		c0-12.697-10.285-23.077-22.863-23.077S18.183,63.223,18.183,75.918C18.183,88.617,28.466,98.996,41.044,98.996z"/>
	<line fill="none" stroke="#FFFFFF" stroke-width="0.254" x1="24.921" y1="93.507" x2="56.542" y2="93.507"/>
	<line fill="none" stroke="#FFFFFF" stroke-width="0.254" x1="24.478" y1="58.939" x2="58.025" y2="58.939"/>
	<line fill="none" stroke="#FFFFFF" stroke-width="0.254" x1="26.866" y1="62.387" x2="60.665" y2="62.387"/>
	<line fill="none" stroke="#FFFFFF" stroke-width="0.254" x1="32.017" y1="65.854" x2="63.063" y2="65.888"/>
	<line fill="none" stroke="#FFFFFF" stroke-width="0.254" x1="33.835" y1="69.333" x2="63.909" y2="69.333"/>
	<line fill="none" stroke="#FFFFFF" stroke-width="0.254" x1="35.383" y1="72.752" x2="63.853" y2="72.752"/>
	<line fill="none" stroke="#FFFFFF" stroke-width="0.254" x1="36.271" y1="76.28" x2="64.612" y2="76.28"/>
	<line fill="none" stroke="#FFFFFF" stroke-width="0.254" x1="31.77" y1="86.68" x2="62.169" y2="86.645"/>
	<path fill="#495677" stroke="#495677" stroke-width="0.0762" d="M42.125,100.592c11.721,17.146,33.694,22.52,55.396,22.52
		c35.196,0,69.501-24.374,69.501-50.014c0-25.642-34.369-45.444-69.565-45.444c-22.434,0-40.183,6.333-55.238,23.479
		c17.628-8.682,30.392-10.782,41.316-9.608c18.484,2.193,43.368,13.347,43.582,32.314c0,22.707-23.812,31.355-43.582,35.712
		C71.962,110.974,60.641,107.854,42.125,100.592L42.125,100.592z"/>
	<path fill="#495677" stroke="#495677" stroke-width="0.0762" d="M40.862,51.173c-2.846-8.095-4.195-9.947-10.926-10.967
		c-6.733-1.02-21.056,9.424-20.75,36.455c0.306,27.033,14.235,38.771,21.242,37.535c7.009-1.234,7.803-4.109,10.561-13.592
		c-0.766,17.762-8.603,28.945-21.392,30.029c-12.792,1.08-28.191-22.215-28.829-53.231c-0.616-30.986,15.329-57.4,29.162-56.627
		C33.731,21.517,39.332,37.209,40.862,51.173z"/>
	<line fill="none" stroke="#FFFFFF" stroke-width="0.254" x1="27.84" y1="89.973" x2="59.708" y2="90.006"/>
	<line fill="none" stroke="#FFFFFF" stroke-width="0.254" x1="35.666" y1="79.779" x2="64.013" y2="79.779"/>
	<polygon fill="#FFFFFF" stroke="#FFFFFF" stroke-width="0.0762" points="26.775,61.121 32.814,62.387 26.716,63.624 22.188,62.789 
		22.749,62.048 	"/>
	<polygon fill="#FFFFFF" stroke="#FFFFFF" stroke-width="0.0762" points="25.269,65.066 31.334,65.066 37.775,65.871 31.334,66.828 
		25.269,66.856 20.114,66.426 20.158,65.871 	"/>
	<polygon fill="#FFFFFF" stroke="#FFFFFF" stroke-width="0.0762" points="23.179,68.38 33.216,68.38 40.163,69.336 33.33,70.388 
		22.952,70.388 18.949,69.799 19.09,69.245 	"/>
	<polygon fill="#FFFFFF" stroke="#FFFFFF" stroke-width="0.0762" points="23.193,75.166 36.152,75.135 42.766,76.309 36.455,77.264 
		23.026,77.235 18.1,76.585 18.064,75.94 	"/>
	<polygon fill="#FFFFFF" stroke="#FFFFFF" stroke-width="0.0762" points="22.746,78.758 35.882,78.758 41.242,79.775 35.975,80.578 
		22.746,80.578 18.45,80.271 18.419,79.62 	"/>
	<line fill="none" stroke="#FFFFFF" stroke-width="0.254" x1="35.835" y1="83.2" x2="63.383" y2="83.2"/>
	<polygon fill="#FFFFFF" stroke="#FFFFFF" stroke-width="0.0762" points="27.548,88.822 32.762,89.998 27.727,90.955 22.989,90.215 
		22.526,89.659 	"/>
	<polygon fill="#FFFFFF" stroke="#FFFFFF" stroke-width="0.0762" points="22.9,71.762 34.495,71.762 41.249,72.69 34.682,73.649 
		22.929,73.649 18.239,73.123 18.27,72.35 	"/>
	<path fill="#FFFFFF" stroke="#FFFFFF" stroke-width="0.0762" d="M24.122,81.955h11.612l4.523,1.236l-4.639,0.833
		c-5.495,0-5.864,0-11.357,0l-4.811-0.556l-0.286-0.555L24.122,81.955z"/>
	<polygon fill="#FFFFFF" stroke="#FFFFFF" stroke-width="0.0762" points="24.295,85.471 32.358,85.502 37.642,86.647 32.404,87.725 
		24.411,87.695 20.847,86.861 20.318,86.306 	"/>
</g>
</svg>
